<svg xmlns="http://www.w3.org/2000/svg" viewBox="0 0 24 24">
  <path d="M 0 9 C 0 4.029 4.029 0 9 0 C 13.971 0 18 4.029 18 9 C 18 13.971 13.971 18 9 18 C 4.029 18 0 13.971 0 9 Z" fill-opacity="0" fill="#7e683e" transform="translate(3 3)"/>
  <path d="M 0 9 C 0 4.029 4.029 0 9 0 C 13.971 0 18 4.029 18 9 C 18 13.971 13.971 18 9 18 C 4.029 18 0 13.971 0 9 Z" fill="transparent" stroke-linecap="butt" stroke-linejoin="miter" stroke-miterlimit="10" stroke-width="1.3" stroke="#7e683e" transform="translate(3 3)"/>
  <path d="M 0 0 L 7.5 0" fill="transparent" stroke-linecap="round" stroke-linejoin="round" stroke-width="1.3" stroke="#7e683e" transform="translate(8.25 12)"/>
  <path d="M 0 0 L 0 7.5" fill="transparent" stroke-linecap="round" stroke-linejoin="round" stroke-width="1.3" stroke="#7e683e" transform="translate(12 8.25)"/>
</svg>
