<svg width="17" height="17" viewBox="0 0 17 17" fill="none" xmlns="http://www.w3.org/2000/svg">
<g clip-path="url(#clip0)">
<path d="M5.0079 11.9194C9.57923 16.5393 13.7747 16.6605 14.5386 16.6363C14.6113 16.6363 14.6841 16.5878 14.7326 16.5271L16.5999 13.4351C16.6605 13.326 16.6363 13.1926 16.5272 13.132L12.5864 10.5129C12.5136 10.4644 12.4045 10.4644 12.3317 10.5129L9.87024 12.2468C9.79749 12.2953 9.68836 12.3074 9.6156 12.2468C9.13058 11.9194 5.08065 7.86949 4.74114 7.37235C4.69264 7.29959 4.69264 7.19046 4.74114 7.11771L6.47509 4.65623C6.52359 4.58347 6.53572 4.47434 6.47509 4.40159L3.8681 0.460792C3.79535 0.363788 3.66197 0.327411 3.56496 0.388039L0.472951 2.2675C0.412324 2.30387 0.363822 2.37663 0.363822 2.46151C0.33957 3.23754 0.460826 7.43298 5.08065 11.9922L5.0079 11.9194Z" stroke="#412104" stroke-width="0.6" stroke-linejoin="round"></path>
</g>
<defs>
<clipPath id="clip0">
<rect width="17" height="17" fill="white"></rect>
</clipPath>
</defs>
</svg>
