<svg xmlns="http://www.w3.org/2000/svg" viewBox="0 0 145 21">
  <g clip-path="url(#clip0)">
    <rect width="144.879" height="21" fill="#251302" />
    <path d="M7.73202 3.11877C6.74289 3.11877 5.93317 3.31911 5.29969 3.7198C4.6662 4.12049 4.34866 4.72626 4.34866 5.53711C4.34866 6.34796 4.6662 6.96792 5.29969 7.39701C5.93317 7.8261 7.28112 8.28831 9.3451 8.78523C11.4091 9.28215 12.9634 9.97784 14.0097 10.8739C15.056 11.7699 15.5783 13.0903 15.5783 14.8366C15.5783 16.5829 14.9163 17.998 13.5922 19.0849C12.268 20.1718 10.5295 20.716 8.37979 20.716C5.23142 20.716 2.43868 19.6386 0 17.4837L2.13067 14.9376C4.16449 16.6918 6.2777 17.5689 8.46553 17.5689C9.55944 17.5689 10.4279 17.3354 11.0709 16.8685C11.7139 16.4015 12.0362 15.7816 12.0362 15.0086C12.0362 14.2356 11.7346 13.6345 11.1297 13.2055C10.5248 12.7764 9.48323 12.3851 8.0051 12.0318C6.52697 11.6784 5.40447 11.355 4.63604 11.0584C3.8676 10.7634 3.18648 10.377 2.5911 9.89896C1.40034 9.00293 0.804955 7.62891 0.804955 5.77847C0.804955 3.92804 1.48131 2.50195 2.8356 1.5018C4.1899 0.500075 5.8649 0 7.86062 0C9.14664 0 10.4231 0.209811 11.6901 0.629432C12.9571 1.04905 14.051 1.64062 14.9719 2.40257L13.1571 4.94869C12.5618 4.41549 11.7552 3.97536 10.7391 3.63304C9.72139 3.28914 8.71797 3.11877 7.73043 3.11877H7.73202Z" fill="#C12B20" />
    <path d="M33.6605 3.10459C35.599 4.84933 36.5691 7.27714 36.5691 10.3864C36.5691 13.4957 35.6276 15.9567 33.7478 17.7677C31.8664 19.5802 28.9863 20.4858 25.1092 20.4858H18.4282V0.485901H25.3394C28.9482 0.485901 31.7219 1.35827 33.6605 3.10301V3.10459ZM33.1413 10.4716C33.1413 5.89365 30.5026 3.60467 25.2235 3.60467H21.8259V17.3086H25.5982C28.0353 17.3086 29.9024 16.7312 31.1996 15.5781C32.4951 14.4249 33.1429 12.7228 33.1429 10.4716H33.1413Z" fill="#C12B20" />
    <path d="M45.1775 20.7129C43.2961 20.7129 41.6942 20.1939 40.3684 19.1543C39.0443 18.1147 38.3822 16.6902 38.3822 14.8776C38.3822 12.7227 39.9556 10.8061 43.104 9.12756C42.3165 8.23153 41.7656 7.4964 41.4481 6.92534C41.1305 6.3527 40.9733 5.62862 40.9733 4.75151C40.9733 3.22605 41.5386 2.05237 42.6722 1.23206C43.8042 0.411743 45.1378 0.00158691 46.6747 0.00158691C48.2116 0.00158691 49.5151 0.392813 50.5915 1.17526C51.6664 1.95772 52.2046 3.0541 52.2046 4.46598C52.2046 6.35428 50.6693 8.13846 47.5972 9.81536C49.1324 11.6847 50.3804 13.1155 51.3409 14.1062C51.9363 13.2291 52.3967 12.2085 52.7238 11.0443L55.0847 12.7038C54.5846 14.0195 54.0193 15.1742 53.3859 16.1649C54.1527 16.9474 55.1323 17.8907 56.3231 18.9981L54.1638 21.0016L51.5156 18.3987C49.8263 19.9431 47.7146 20.7161 45.1807 20.7161L45.1775 20.7129ZM42.6722 17.1225C43.4009 17.6667 44.371 17.938 45.5808 17.938C46.7906 17.938 48.0766 17.3843 49.4389 16.2785C47.5003 14.2577 45.965 12.5587 44.8314 11.1862C42.6626 12.3504 41.5783 13.6282 41.5783 15.0196C41.5783 15.8778 41.9418 16.5782 42.6722 17.1225ZM46.6604 2.54613C46.0174 2.54613 45.4411 2.74648 44.933 3.14717C44.425 3.54786 44.1694 4.01481 44.1694 4.54959C44.1694 5.08437 44.2995 5.56551 44.5583 5.9946C44.8171 6.42369 45.2633 7.01999 45.8967 7.78194C48.0655 6.71395 49.1499 5.72169 49.1499 4.80673C49.1499 4.04478 48.8959 3.47687 48.3862 3.10458C47.8766 2.73228 47.3018 2.54613 46.6588 2.54613H46.6604Z" fill="#C12B20" />
    <path d="M65.9095 3.57627V20.4842H62.5119V3.57627H56.4072V0.485901H72.0141V3.57627H65.9095Z" fill="#C12B20" />
    <path d="M82.5691 20.4842V0.485901H85.9667V17.2802H95.1514V20.4842H82.5691Z" fill="#C12B20" />
    <path d="M102.696 15.9362L100.68 20.4858H97.0519L105.921 0.485901H109.549L118.417 20.4842H114.789L112.773 15.9346H102.695L102.696 15.9362ZM111.392 12.8174L107.735 4.578L104.079 12.8174H111.393H111.392Z" fill="#C12B20" />
    <path d="M124.119 14.8777L128.61 0.487478H131.662L136.153 14.8777L141.221 0.487478H144.878L137.852 20.4858H134.483L130.25 6.7818H130.02L125.787 20.4858H122.418L115.394 0.485901H119.051L124.119 14.8761V14.8777Z" fill="#C12B20" />
  </g>
  <defs>
    <clipPath id="clip0">
      <rect width="144.879" height="21" fill="white" />
    </clipPath>
  </defs>
</svg>
